<svg xmlns="http://www.w3.org/2000/svg" xmlns:xlink="http://www.w3.org/1999/xlink" viewBox="0 0 3099.19 2467.83"><defs><style>.cls-1{fill:#454e54;}.cls-2{fill:#7789ad;}.cls-3,.cls-9{fill:#556784;}.cls-11,.cls-3,.cls-8{opacity:0.5;}.cls-4,.cls-7{fill:#b6c1d1;}.cls-4,.cls-6{opacity:0.3;}.cls-5{fill:url(#linear-gradient);}.cls-10{fill:url(#linear-gradient-2);}.cls-11{fill:#9bb0c9;}.cls-12{fill:url(#linear-gradient-3);}</style><linearGradient id="linear-gradient" x1="1337.32" y1="1197.69" x2="2026.79" y2="1197.69" gradientUnits="userSpaceOnUse"><stop offset="0" stop-color="#e9edf7"/><stop offset="1" stop-color="#fff"/></linearGradient><linearGradient id="linear-gradient-2" x1="1482.42" y1="2176.24" x2="1881.69" y2="2176.24" xlink:href="#linear-gradient"/><linearGradient id="linear-gradient-3" x1="1564.67" y1="959.32" x2="1799.67" y2="959.32" xlink:href="#linear-gradient"/></defs><title>Asset 5</title><g id="Layer_2" data-name="Layer 2"><g id="Landing"><circle id="Ellipse_18" data-name="Ellipse 18" class="cls-1" cx="1311.58" cy="587.52" r="587.52"/><circle id="Ellipse_19" data-name="Ellipse 19" class="cls-1" cx="233" cy="819.27" r="233"/><g id="Ellipse_20" data-name="Ellipse 20"><circle class="cls-1" cx="564.97" cy="1562.12" r="472.27"/><circle class="cls-1" cx="564.97" cy="1562.12" r="471.02"/></g><g id="Ellipse_21" data-name="Ellipse 21"><circle class="cls-1" cx="2306.23" cy="1674.86" r="792.96"/><circle class="cls-1" cx="2306.23" cy="1674.86" r="791.71"/></g><g id="Raketa"><rect class="cls-2" x="1541.25" y="1953.58" width="281.84" height="163.94"/><polygon class="cls-3" points="1807.96 1953.58 1807.96 2102.39 1541.25 2102.39 1541.25 2117.52 1823.09 2117.52 1823.09 1953.58 1807.96 1953.58"/><polygon class="cls-4" points="1556.38 1968.71 1823.09 1968.71 1823.09 1953.58 1541.25 1953.58 1541.25 2117.52 1556.38 2117.52 1556.38 1968.71"/><path class="cls-5" d="M2011.34,2047.66l-659.12-.27a14.92,14.92,0,0,1-14.9-14.92l.54-1269c.05-119.55,265-354.41,330.26-410.41a22,22,0,0,1,28.75,0c65.18,56.06,330,291.14,329.92,410.69l-.53,1269A14.9,14.9,0,0,1,2011.34,2047.66Z"/><path class="cls-2" d="M1334.07,1670.56c0-113.82.1-242.12.15-368.36-224,84-383.56,300.11-383.56,553.52a588.25,588.25,0,0,0,134.09,374.67c13.27,16.16,39.38,4.56,36.39-16.14a590.36,590.36,0,0,1-6.08-84.52C1115.06,1944.32,1200.49,1778.92,1334.07,1670.56Z"/><path class="cls-4" d="M965.79,1870.85c0-247.66,152.36-459.63,368.42-547.57q0-10.54,0-21.08c-224,84-383.56,300.11-383.56,553.52a588.25,588.25,0,0,0,134.09,374.67,20.77,20.77,0,0,0,7.73,5.93A588.08,588.08,0,0,1,965.79,1870.85Z"/><path class="cls-3" d="M1319.08,1308.15c0,119.38-.1,239.79-.14,347.27-133.58,108.37-219,273.77-219,459.18a590.36,590.36,0,0,0,6.08,84.52c2.48,17.15-15,28-28.66,22.07q3.66,4.64,7.4,9.2c13.27,16.16,39.38,4.56,36.39-16.14a590.36,590.36,0,0,1-6.08-84.52c0-185.41,85.43-350.81,219-459.17,0-113.82.1-242.12.15-368.36C1329.14,1304.11,1324.1,1306.11,1319.08,1308.15Z"/><path class="cls-2" d="M2023.35,1670.56c0-113.82-.1-242.12-.15-368.36,224.06,84,383.57,300.11,383.57,553.52a588.2,588.2,0,0,1-134.1,374.67c-13.27,16.16-39.38,4.56-36.39-16.14a588.92,588.92,0,0,0,6.08-84.52C2242.36,1944.32,2156.93,1778.92,2023.35,1670.56Z"/><g class="cls-6"><path class="cls-7" d="M2038.33,1317.33a591.66,591.66,0,0,1,202.78,128.16A591.92,591.92,0,0,0,2023.2,1302.2c0,126.24.11,254.54.16,368.36q7.67,6.23,15.12,12.71C2038.44,1570.05,2038.38,1442.68,2038.33,1317.33Z"/><path class="cls-7" d="M2251.41,2229.38a588.92,588.92,0,0,0,6.08-84.52c0-166.93-69.26-317.63-180.55-425.1,102.41,106.26,165.42,250.73,165.42,410a588.92,588.92,0,0,1-6.08,84.52c-1.7,11.78,6,20.6,15.45,23.05A21.42,21.42,0,0,1,2251.41,2229.38Z"/></g><g class="cls-8"><path class="cls-9" d="M2023.35,1668.14c0,.8,0,1.62,0,2.42q20,16.18,38.45,34.06Q2043.41,1685.54,2023.35,1668.14Z"/><path class="cls-9" d="M2226,1430.36c102.55,106.27,165.65,250.86,165.65,410.23a588.2,588.2,0,0,1-134.09,374.67,20,20,0,0,1-20.94,6.91c3.6,15.42,24.62,22.17,36.07,8.22a588.2,588.2,0,0,0,134.1-374.67C2406.77,1688.66,2337.43,1537.83,2226,1430.36Z"/></g><rect class="cls-10" x="1482.42" y="2117.52" width="399.27" height="117.43" rx="1.9"/><circle class="cls-2" cx="1682.06" cy="959.32" r="180.15"/><circle class="cls-2" cx="1682.06" cy="959.32" r="180.15"/><path class="cls-3" d="M1801.82,824.62a180.11,180.11,0,0,1-254.27,254.28,180.12,180.12,0,1,0,254.27-254.28Z"/><path class="cls-11" d="M1563.12,1094.54a180.11,180.11,0,0,1,254.27-254.27,180.12,180.12,0,1,0-254.27,254.27Z"/><circle class="cls-12" cx="1682.17" cy="959.32" r="117.5"/></g></g></g></svg>