<svg xmlns="http://www.w3.org/2000/svg" xmlns:xlink="http://www.w3.org/1999/xlink" viewBox="0 0 4588.15 2781.27"><defs><style>.cls-1{fill:#454e54;}.cls-2{fill:#ff9a60;}.cls-3{fill:#7789ad;}.cls-10,.cls-4{fill:#556784;}.cls-12,.cls-4,.cls-9{opacity:0.5;}.cls-5,.cls-8{fill:#b6c1d1;}.cls-5,.cls-7{opacity:0.3;}.cls-6{fill:url(#linear-gradient);}.cls-11{fill:url(#linear-gradient-2);}.cls-12{fill:#9bb0c9;}.cls-13{fill:url(#linear-gradient-3);}</style><linearGradient id="linear-gradient" x1="2680.74" y1="1197.69" x2="3370.21" y2="1197.69" gradientUnits="userSpaceOnUse"><stop offset="0" stop-color="#e9edf7"/><stop offset="1" stop-color="#fff"/></linearGradient><linearGradient id="linear-gradient-2" x1="2825.84" y1="2176.24" x2="3225.11" y2="2176.24" xlink:href="#linear-gradient"/><linearGradient id="linear-gradient-3" x1="2908.09" y1="959.32" x2="3143.09" y2="959.32" xlink:href="#linear-gradient"/></defs><title>IndexBG_1</title><g id="Layer_2" data-name="Layer 2"><g id="Landing"><circle id="Ellipse_18" data-name="Ellipse 18" class="cls-1" cx="2655" cy="587.52" r="587.52"/><circle id="Ellipse_19" data-name="Ellipse 19" class="cls-1" cx="1576.42" cy="819.27" r="233"/><g id="Ellipse_20" data-name="Ellipse 20"><circle class="cls-1" cx="1908.39" cy="1562.12" r="472.27"/><circle class="cls-1" cx="1908.39" cy="1562.12" r="471.02"/></g><g id="Ellipse_21" data-name="Ellipse 21"><circle class="cls-1" cx="3649.64" cy="1674.86" r="792.96"/><circle class="cls-1" cx="3649.64" cy="1674.86" r="791.71"/></g><path class="cls-2" d="M2693.37,757H2516.31V406.27H2147.38V2190h368.93V959.08h354.13V757Zm-521-307.77,55.29,56-55.29,55.28ZM2404.29,851.8l-59.94,61.65V791Zm-31.21-67.24h96.59l-48,49.31Zm48.77,85,61.1,61.93H2361.64Zm17.44-17.93,52-53.5V904.41ZM2355,754.88l59.45-60.26,59.45,60.26Zm-10.67-24.78V623.55l52.56,53.27Zm19.7-122.18h100.84L2414.47,659Zm0-29.68,54.42-55.17,55.16,55.17Zm-19.7-15.63V449l56.44,56.45Zm-25,0L2262.9,505.4,2319.35,449Zm-19.7,15.63H2190.06l55.16-55.17Zm0,29.68L2249.22,659l-50.42-51.11Zm19.7,15.63V730.1l-52.57-53.28Zm-10.67,131.33H2189.77l59.45-60.26Zm-18.06,29.68L2242,833.87,2194,784.56Zm28.73,6.48V913.45L2259.4,851.8Zm-17.3,140.49H2180.74l61.1-61.93Zm-4.14,29.68-47.49,48.84-47.5-48.84ZM2319.35,975v105.92l-51.5-53Zm-8.4,133.15H2189.88l60.54-62.26Zm-17.79,25.42-51.32,52.77-52.07-52.77Zm26.19,8.93v122.41l-59.95-60.77Zm-19.7,138H2185.12l56.85-58.47Zm0,29.67-50.43,51.11-50.42-51.11Zm19.7,15.63v106.56l-52.57-53.28Zm-10.67,131.34H2189.77l59.45-60.26Zm-18.06,29.68L2242,1536.15l-48-49.27Zm28.73,6.48v122.22l-59.89-61.52Zm-17.12,140.49H2180.74l61.15-62Zm-4.55,29.67-47.36,48.65L2203,1663.52Zm21.67,13.59v106l-51.59-53Zm-8.21,133.38H2189.5l60.82-62.48Zm-23.56,30.9-46.3,47.55-46.14-47.55Zm31.77,3.21v124.81l-60.65-62.52Zm-16.46,143.75H2179.4l61.85-63.53Zm-5.72,29.68-47.74,49.21L2203,2018Zm22.18,13v110.33l-52.75-56Zm25,0,52.83,54.45-52.83,56.13Zm22.17-13h94.2l-46.39,49.28Zm-5.72-29.68,61.64-63.53,61.85,63.53Zm-16.45-18.94V1844.6l60.64,62.29Zm31.76-128h92.44l-46.14,47.55Zm-23.56-30.9,60.82-62.48,60.83,62.48Zm-8.2-27.41v-106l51.58,53ZM2366,1663.52h94.71l-47.36,48.65Zm-4.56-29.67,60.34-62,61.15,62Zm-17.11-18.27V1493.36l59.89,60.7Zm28.73-128.7h96.56l-48,49.27ZM2355,1457.2l59.45-60.26,59.45,60.26Zm-10.67-24.78V1325.86l52.56,53.28Zm19.7-122.19h100.84l-50.42,51.11Zm0-29.67,57.67-58.47,56.85,58.47Zm-19.7-15.63V1142.52l59.94,61.64Zm26.19-131.34h103.38l-52.07,52.77Zm-17.8-25.42,60.54-62.26,60.54,62.26Zm-8.39-27.23V975l51.49,53Zm21.43-119.73h95l-47.49,48.84Zm150.53-157.4L2572,858.05l-55.71,54.23Zm13.45-21.8h120.36l-60.18,58.59ZM2432,676.82l59.28-60.09V736.91Zm59.28-116.26L2436,505.28l55.28-56Zm-73-73L2362,431.27h111.9Zm-173,0-55.57-56.33h111.9Zm-13.67,189.22-59.29,60.09V616.73Zm-7.26,174.85-52,52.74V798.17ZM2233,1028l-60.6,62.32V965.66Zm-8.57,176.31-52,53.51V1151.56Zm7.25,174.85-59.28,60.09V1319.05ZM2224.45,1554l-52.07,52.77V1500.46Zm8.42,176.14-60.49,62.14V1668Zm-9,176.78-51.46,52.85V1853.83ZM2232,2085.2l-59.62,61.46V2022Zm17.17,18.21,58.06,61.58h-117.8Zm165.44.09,59.66,61.49H2356.72Zm17.15-18.23,59.55-63.27v124.66Zm8.1-178.4,51.45-53v105.89Zm-9-176.78,60.49-62.14v124.28Zm8.42-176.14,52.07-53.49v106.26ZM2432,1379.14l59.28-60.09v120.18Zm7.26-174.85,52-52.73V1257.8ZM2430.71,1028l60.6-62.32V1090.3Zm159.23-152.49,60.18,58.59H2529.76ZM2607.86,858l60.51-58.91V917Zm85.51-58.35,58.36,58.36-58.36,58.35ZM2711.05,782h116.71l-58.36,58.36Zm58.36,93.71,58.35,58.36H2711.05Zm17.67-17.67,58.36-58.36V916.4Z"/><path class="cls-2" d="M4588.15,2515.65c-601.29-424.73-1335.15-674.26-2127.3-674.26-945.4,0-1807.78,355.4-2460.85,939.88H4588.15Z"/><g id="Raketa"><rect class="cls-3" x="2884.67" y="1953.58" width="281.84" height="163.94"/><polygon class="cls-4" points="3151.38 1953.58 3151.38 2102.39 2884.67 2102.39 2884.67 2117.52 3166.51 2117.52 3166.51 1953.58 3151.38 1953.58"/><polygon class="cls-5" points="2899.8 1968.71 3166.51 1968.71 3166.51 1953.58 2884.67 1953.58 2884.67 2117.52 2899.8 2117.52 2899.8 1968.71"/><path class="cls-6" d="M3354.76,2047.66l-659.12-.27a14.92,14.92,0,0,1-14.9-14.92l.53-1269c.05-119.55,265-354.41,330.27-410.41a22,22,0,0,1,28.74,0c65.19,56.06,330,291.14,329.93,410.69l-.54,1269A14.89,14.89,0,0,1,3354.76,2047.66Z"/><path class="cls-3" d="M2677.49,1670.56c0-113.82.1-242.12.15-368.36-224.06,84-383.56,300.11-383.56,553.52a588.2,588.2,0,0,0,134.09,374.67c13.27,16.16,39.38,4.56,36.39-16.14a588.92,588.92,0,0,1-6.08-84.52C2458.48,1944.32,2543.91,1778.92,2677.49,1670.56Z"/><path class="cls-5" d="M2309.21,1870.85c0-247.66,152.36-459.63,368.42-547.57q0-10.54,0-21.08c-224.06,84-383.56,300.11-383.56,553.52a588.2,588.2,0,0,0,134.09,374.67,20.77,20.77,0,0,0,7.73,5.93A588.08,588.08,0,0,1,2309.21,1870.85Z"/><path class="cls-4" d="M2662.5,1308.15c-.05,119.38-.1,239.79-.14,347.27-133.58,108.37-219,273.77-219,459.18a588.92,588.92,0,0,0,6.08,84.52c2.48,17.15-15,28-28.66,22.07q3.66,4.64,7.4,9.2c13.27,16.16,39.38,4.56,36.39-16.14a588.92,588.92,0,0,1-6.08-84.52c0-185.41,85.43-350.81,219-459.17,0-113.82.1-242.12.15-368.36C2672.56,1304.11,2667.52,1306.11,2662.5,1308.15Z"/><path class="cls-3" d="M3366.77,1670.56c-.05-113.82-.1-242.12-.15-368.36,224.05,84,383.56,300.11,383.56,553.52a588.2,588.2,0,0,1-134.09,374.67c-13.27,16.16-39.38,4.56-36.39-16.14a590.36,590.36,0,0,0,6.08-84.52C3585.78,1944.32,3500.35,1778.92,3366.77,1670.56Z"/><g class="cls-7"><path class="cls-8" d="M3381.75,1317.33a591.66,591.66,0,0,1,202.78,128.16,591.92,591.92,0,0,0-217.91-143.29c.05,126.24.1,254.54.15,368.36q7.68,6.23,15.13,12.71C3381.85,1570.05,3381.8,1442.68,3381.75,1317.33Z"/><path class="cls-8" d="M3594.83,2229.38a590.36,590.36,0,0,0,6.08-84.52c0-166.93-69.26-317.63-180.55-425.1,102.4,106.26,165.42,250.73,165.42,410a590.36,590.36,0,0,1-6.08,84.52c-1.7,11.78,6,20.6,15.44,23.05A21.22,21.22,0,0,1,3594.83,2229.38Z"/></g><g class="cls-9"><path class="cls-10" d="M3366.77,1668.14v2.42q20,16.18,38.45,34.06Q3386.83,1685.54,3366.77,1668.14Z"/><path class="cls-10" d="M3569.4,1430.36c102.55,106.27,165.65,250.86,165.65,410.23A588.2,588.2,0,0,1,3601,2215.26a20,20,0,0,1-20.95,6.91c3.61,15.42,24.62,22.17,36.08,8.22a588.2,588.2,0,0,0,134.09-374.67C3750.18,1688.66,3680.84,1537.83,3569.4,1430.36Z"/></g><rect class="cls-11" x="2825.84" y="2117.52" width="399.27" height="117.43" rx="1.9"/><circle class="cls-3" cx="3025.47" cy="959.32" r="180.15"/><circle class="cls-3" cx="3025.47" cy="959.32" r="180.15"/><path class="cls-4" d="M3145.23,824.62A180.11,180.11,0,0,1,2891,1078.9a180.12,180.12,0,1,0,254.27-254.28Z"/><path class="cls-12" d="M2906.53,1094.54A180.11,180.11,0,0,1,3160.8,840.27a180.12,180.12,0,1,0-254.27,254.27Z"/><circle class="cls-13" cx="3025.59" cy="959.32" r="117.5"/></g></g></g></svg>